<svg width="12" height="12" viewBox="0 0 12 12" fill="none" xmlns="http://www.w3.org/2000/svg">
<path d="M5.99984 0.166687C2.77984 0.166687 0.166504 2.78002 0.166504 6.00002C0.166504 9.22002 2.77984 11.8334 5.99984 11.8334C9.21984 11.8334 11.8332 9.22002 11.8332 6.00002C11.8332 2.78002 9.21984 0.166687 5.99984 0.166687ZM4.419 8.50252L2.32484 6.40835C2.09734 6.18085 2.09734 5.81335 2.32484 5.58585C2.55234 5.35835 2.91984 5.35835 3.14734 5.58585L4.83317 7.26585L8.8465 3.25252C9.074 3.02502 9.4415 3.02502 9.669 3.25252C9.8965 3.48002 9.8965 3.84752 9.669 4.07502L5.2415 8.50252C5.01984 8.73002 4.6465 8.73002 4.419 8.50252Z" fill="#58CC02"/>
</svg>
