<svg width="32" height="32" viewBox="0 0 32 32" fill="none" xmlns="http://www.w3.org/2000/svg">
    <circle cx="16" cy="16" r="14.75" stroke="#58CC02" stroke-width="2.5" fill="white"/>
    <path d="M11.6667 20.6667C11.6667 21.4 12.2667 22 13 22H18.3333C19.0667 22 19.6667 21.4 19.6667 20.6667V14C19.6667 13.2667 19.0667 12.6667 18.3333 12.6667H13C12.2667 12.6667 11.6667 13.2667 11.6667 14V20.6667ZM19.6667 10.6667H18L17.5267 10.1933C17.4067 10.0733 17.2333 10 17.06 10H14.2733C14.1 10 13.9267 10.0733 13.8067 10.1933L13.3333 10.6667H11.6667C11.3 10.6667 11 10.9667 11 11.3333C11 11.7 11.3 12 11.6667 12H19.6667C20.0333 12 20.3333 11.7 20.3333 11.3333C20.3333 10.9667 20.0333 10.6667 19.6667 10.6667Z" fill="#58CC02"/>
</svg>
