<svg width="19" height="18" viewBox="0 0 19 18" fill="none" xmlns="http://www.w3.org/2000/svg">
<path d="M14.9164 11.4512L13.0114 11.2337C12.5539 11.1812 12.1039 11.3387 11.7814 11.6612L10.4014 13.0412C8.27893 11.9612 6.53893 10.2287 5.45893 8.09867L6.84643 6.71117C7.16893 6.38867 7.32643 5.93867 7.27393 5.48117L7.05643 3.59117C6.96643 2.83367 6.32893 2.26367 5.56393 2.26367H4.26643C3.41893 2.26367 2.71393 2.96867 2.76643 3.81617C3.16393 10.2212 8.28643 15.3362 14.6839 15.7337C15.5314 15.7862 16.2364 15.0812 16.2364 14.2337V12.9362C16.2439 12.1787 15.6739 11.5412 14.9164 11.4512Z" fill="black"/>
</svg>
