<svg width="39" height="38" viewBox="0 0 39 38" fill="none" xmlns="http://www.w3.org/2000/svg">
<path d="M19.5019 34.4375C21.2436 34.4375 22.6686 33.0125 22.6686 31.2708H16.3352C16.3352 33.0125 17.7444 34.4375 19.5019 34.4375ZM29.0019 24.9375V17.0208C29.0019 12.16 26.4052 8.09083 21.8769 7.01417V5.9375C21.8769 4.62333 20.8161 3.5625 19.5019 3.5625C18.1877 3.5625 17.1269 4.62333 17.1269 5.9375V7.01417C12.5827 8.09083 10.0019 12.1442 10.0019 17.0208V24.9375L7.95941 26.98C6.96191 27.9775 7.65858 29.6875 9.06775 29.6875H29.9202C31.3294 29.6875 32.0419 27.9775 31.0444 26.98L29.0019 24.9375Z" fill="#292929"/>
</svg>
