<svg width="24" height="24" viewBox="0 0 24 24" fill="none" xmlns="http://www.w3.org/2000/svg">
<path fill-rule="evenodd" clip-rule="evenodd" d="M12.2656 19.8716C13.5438 19.2283 19 16.1789 19 11C19 7.13401 15.866 4 12 4C8.13401 4 5 7.13401 5 11C5 16.1789 10.4562 19.2283 11.7344 19.8716C11.904 19.957 12.096 19.957 12.2656 19.8716ZM11.9999 14C13.6568 14 14.9999 12.6569 14.9999 11C14.9999 9.34316 13.6568 8.00002 11.9999 8.00002C10.3431 8.00002 8.99994 9.34316 8.99994 11C8.99994 12.6569 10.3431 14 11.9999 14Z" fill="#4B4B4B"/>
</svg>
