<svg width="62" height="135" viewBox="0 0 62 135" fill="none" xmlns="http://www.w3.org/2000/svg">
<path d="M14.58 108C12.708 108 11.16 107.388 9.936 106.164C8.712 104.868 8.1 103.284 8.1 101.412V34.668C8.1 32.796 8.712 31.248 9.936 30.024C11.16 28.728 12.708 28.08 14.58 28.08C16.452 28.08 18 28.728 19.224 30.024C20.448 31.248 21.06 32.796 21.06 34.668V101.412C21.06 103.284 20.448 104.868 19.224 106.164C18 107.388 16.452 108 14.58 108ZM48.924 50.22C50.58 50.22 52.02 50.904 53.244 52.272C54.468 53.64 55.08 54.972 55.08 56.268C55.08 57.996 54.216 59.616 52.488 61.128L19.98 91.044L19.44 76.14L44.172 52.272C45.54 50.904 47.124 50.22 48.924 50.22ZM50.544 107.892C48.672 107.892 47.088 107.172 45.792 105.732L25.812 84.564L35.64 75.492L55.08 96.66C56.448 98.1 57.132 99.72 57.132 101.52C57.132 103.392 56.376 104.94 54.864 106.164C53.424 107.316 51.984 107.892 50.544 107.892Z" fill="#58CC02"/>
<rect x="59" y="123" width="51" height="11" rx="5.5" transform="rotate(-180 59 123)" fill="#FFC800"/>
</svg>
