<svg width="208" height="60" viewBox="0 0 208 60" fill="none" xmlns="http://www.w3.org/2000/svg">
<path d="M6.48 48C5.648 48 4.96 47.728 4.416 47.184C3.872 46.608 3.6 45.904 3.6 45.072V15.408C3.6 14.576 3.872 13.888 4.416 13.344C4.96 12.768 5.648 12.48 6.48 12.48C7.312 12.48 8 12.768 8.544 13.344C9.088 13.888 9.36 14.576 9.36 15.408V45.072C9.36 45.904 9.088 46.608 8.544 47.184C8 47.728 7.312 48 6.48 48ZM21.744 22.32C22.48 22.32 23.12 22.624 23.664 23.232C24.208 23.84 24.48 24.432 24.48 25.008C24.48 25.776 24.096 26.496 23.328 27.168L8.88 40.464L8.64 33.84L19.632 23.232C20.24 22.624 20.944 22.32 21.744 22.32ZM22.464 47.952C21.632 47.952 20.928 47.632 20.352 46.992L11.472 37.584L15.84 33.552L24.48 42.96C25.088 43.6 25.392 44.32 25.392 45.12C25.392 45.952 25.056 46.64 24.384 47.184C23.744 47.696 23.104 47.952 22.464 47.952ZM51.2846 21.84C52.1166 21.84 52.8046 22.112 53.3486 22.656C53.8926 23.2 54.1646 23.904 54.1646 24.768V45.072C54.1646 45.904 53.8926 46.608 53.3486 47.184C52.8046 47.728 52.1166 48 51.2846 48C50.4526 48 49.7646 47.728 49.2206 47.184C48.6766 46.608 48.4046 45.904 48.4046 45.072V42.72L49.4606 43.152C49.4606 43.568 49.2366 44.08 48.7886 44.688C48.3406 45.264 47.7326 45.84 46.9646 46.416C46.1966 46.992 45.2846 47.488 44.2286 47.904C43.2046 48.288 42.0846 48.48 40.8686 48.48C38.6606 48.48 36.6606 47.92 34.8686 46.8C33.0766 45.648 31.6526 44.08 30.5966 42.096C29.5726 40.08 29.0606 37.776 29.0606 35.184C29.0606 32.56 29.5726 30.256 30.5966 28.272C31.6526 26.256 33.0606 24.688 34.8206 23.568C36.5806 22.416 38.5326 21.84 40.6766 21.84C42.0526 21.84 43.3166 22.048 44.4686 22.464C45.6206 22.88 46.6126 23.408 47.4446 24.048C48.3086 24.688 48.9646 25.344 49.4126 26.016C49.8926 26.656 50.1326 27.2 50.1326 27.648L48.4046 28.272V24.768C48.4046 23.936 48.6766 23.248 49.2206 22.704C49.7646 22.128 50.4526 21.84 51.2846 21.84ZM41.5886 43.2C42.9966 43.2 44.2286 42.848 45.2846 42.144C46.3406 41.44 47.1566 40.48 47.7326 39.264C48.3406 38.048 48.6446 36.688 48.6446 35.184C48.6446 33.648 48.3406 32.272 47.7326 31.056C47.1566 29.84 46.3406 28.88 45.2846 28.176C44.2286 27.472 42.9966 27.12 41.5886 27.12C40.2126 27.12 38.9966 27.472 37.9406 28.176C36.8846 28.88 36.0526 29.84 35.4446 31.056C34.8686 32.272 34.5806 33.648 34.5806 35.184C34.5806 36.688 34.8686 38.048 35.4446 39.264C36.0526 40.48 36.8846 41.44 37.9406 42.144C38.9966 42.848 40.2126 43.2 41.5886 43.2ZM63.2812 48C62.4493 48 61.7613 47.728 61.2173 47.184C60.6733 46.608 60.4013 45.904 60.4013 45.072V25.248C60.4013 24.416 60.6733 23.728 61.2173 23.184C61.7613 22.608 62.4493 22.32 63.2812 22.32C64.1133 22.32 64.8013 22.608 65.3453 23.184C65.8893 23.728 66.1613 24.416 66.1613 25.248V29.76L65.8253 26.544C66.1773 25.776 66.6253 25.104 67.1693 24.528C67.7453 23.92 68.3853 23.424 69.0893 23.04C69.7933 22.624 70.5453 22.32 71.3453 22.128C72.1453 21.936 72.9453 21.84 73.7453 21.84C74.7053 21.84 75.5053 22.112 76.1453 22.656C76.8173 23.2 77.1533 23.84 77.1533 24.576C77.1533 25.632 76.8813 26.4 76.3373 26.88C75.7933 27.328 75.2013 27.552 74.5613 27.552C73.9533 27.552 73.3933 27.44 72.8813 27.216C72.4013 26.992 71.8413 26.88 71.2013 26.88C70.6253 26.88 70.0333 27.024 69.4253 27.312C68.8493 27.568 68.3053 27.984 67.7933 28.56C67.3133 29.136 66.9133 29.856 66.5933 30.72C66.3053 31.552 66.1613 32.544 66.1613 33.696V45.072C66.1613 45.904 65.8893 46.608 65.3453 47.184C64.8013 47.728 64.1133 48 63.2812 48ZM86.6378 45.072C86.6378 45.904 86.3658 46.608 85.8218 47.184C85.2778 47.728 84.5898 48 83.7578 48C82.9258 48 82.2378 47.728 81.6938 47.184C81.1498 46.608 80.8778 45.904 80.8778 45.072V25.248C80.8778 24.416 81.1498 23.728 81.6938 23.184C82.2378 22.608 82.9258 22.32 83.7578 22.32C84.5898 22.32 85.2778 22.608 85.8218 23.184C86.3658 23.728 86.6378 24.416 86.6378 25.248V45.072ZM83.7098 19.2C82.6218 19.2 81.8538 19.024 81.4058 18.672C80.9578 18.32 80.7338 17.696 80.7338 16.8V15.888C80.7338 14.96 80.9738 14.336 81.4538 14.016C81.9658 13.664 82.7338 13.488 83.7578 13.488C84.8778 13.488 85.6618 13.664 86.1098 14.016C86.5578 14.368 86.7818 14.992 86.7818 15.888V16.8C86.7818 17.728 86.5418 18.368 86.0618 18.72C85.5818 19.04 84.7978 19.2 83.7098 19.2ZM99.0375 48.48C99.0375 50.304 98.6855 51.872 97.9815 53.184C97.2775 54.528 96.3335 55.568 95.1495 56.304C93.9655 57.04 92.6375 57.408 91.1655 57.408C90.3655 57.408 89.7255 57.136 89.2455 56.592C88.7335 56.08 88.4775 55.456 88.4775 54.72V54.192C88.4775 53.488 88.7175 52.928 89.1975 52.512C89.6455 52.096 90.2215 51.776 90.9255 51.552C91.6935 51.296 92.2375 50.928 92.5575 50.448C92.8775 50 93.0695 49.456 93.1335 48.816C93.2295 48.176 93.2775 47.504 93.2775 46.8V25.248C93.2775 24.416 93.5495 23.728 94.0935 23.184C94.6375 22.608 95.3255 22.32 96.1575 22.32C96.9895 22.32 97.6775 22.608 98.2215 23.184C98.7655 23.728 99.0375 24.416 99.0375 25.248V48.48ZM96.0615 19.2C94.9735 19.2 94.2055 19.024 93.7575 18.672C93.3095 18.32 93.0855 17.696 93.0855 16.8V15.888C93.0855 14.96 93.3255 14.336 93.8055 14.016C94.3175 13.664 95.0855 13.488 96.1095 13.488C97.2295 13.488 98.0135 13.664 98.4615 14.016C98.9095 14.368 99.1335 14.992 99.1335 15.888V16.8C99.1335 17.728 98.8935 18.368 98.4135 18.72C97.9335 19.04 97.1495 19.2 96.0615 19.2ZM117.872 48.48C115.152 48.48 112.784 47.92 110.768 46.8C108.784 45.648 107.248 44.096 106.16 42.144C105.104 40.192 104.576 37.984 104.576 35.52C104.576 32.64 105.152 30.192 106.304 28.176C107.488 26.128 109.024 24.56 110.912 23.472C112.8 22.384 114.8 21.84 116.912 21.84C118.544 21.84 120.08 22.176 121.52 22.848C122.992 23.52 124.288 24.448 125.408 25.632C126.528 26.784 127.408 28.128 128.048 29.664C128.72 31.2 129.056 32.832 129.056 34.56C129.024 35.328 128.72 35.952 128.144 36.432C127.568 36.912 126.896 37.152 126.128 37.152H107.792L106.352 32.352H123.968L122.912 33.312V32.016C122.848 31.088 122.512 30.256 121.904 29.52C121.328 28.784 120.592 28.208 119.696 27.792C118.832 27.344 117.904 27.12 116.912 27.12C115.952 27.12 115.056 27.248 114.224 27.504C113.392 27.76 112.672 28.192 112.064 28.8C111.456 29.408 110.976 30.224 110.624 31.248C110.272 32.272 110.096 33.568 110.096 35.136C110.096 36.864 110.448 38.336 111.152 39.552C111.888 40.736 112.816 41.648 113.936 42.288C115.088 42.896 116.304 43.2 117.584 43.2C118.768 43.2 119.712 43.104 120.416 42.912C121.12 42.72 121.68 42.496 122.096 42.24C122.544 41.952 122.944 41.712 123.296 41.52C123.872 41.232 124.416 41.088 124.928 41.088C125.632 41.088 126.208 41.328 126.656 41.808C127.136 42.288 127.376 42.848 127.376 43.488C127.376 44.352 126.928 45.136 126.032 45.84C125.2 46.544 124.032 47.168 122.528 47.712C121.024 48.224 119.472 48.48 117.872 48.48ZM136.969 48C136.137 48 135.449 47.728 134.905 47.184C134.361 46.608 134.089 45.904 134.089 45.072V25.248C134.089 24.416 134.361 23.728 134.905 23.184C135.449 22.608 136.137 22.32 136.969 22.32C137.801 22.32 138.489 22.608 139.033 23.184C139.577 23.728 139.849 24.416 139.849 25.248V29.76L139.513 26.544C139.865 25.776 140.313 25.104 140.857 24.528C141.433 23.92 142.073 23.424 142.777 23.04C143.481 22.624 144.233 22.32 145.033 22.128C145.833 21.936 146.633 21.84 147.433 21.84C148.393 21.84 149.193 22.112 149.833 22.656C150.505 23.2 150.841 23.84 150.841 24.576C150.841 25.632 150.569 26.4 150.025 26.88C149.481 27.328 148.889 27.552 148.249 27.552C147.641 27.552 147.081 27.44 146.569 27.216C146.089 26.992 145.529 26.88 144.889 26.88C144.313 26.88 143.721 27.024 143.113 27.312C142.537 27.568 141.993 27.984 141.481 28.56C141.001 29.136 140.601 29.856 140.281 30.72C139.993 31.552 139.849 32.544 139.849 33.696V45.072C139.849 45.904 139.577 46.608 139.033 47.184C138.489 47.728 137.801 48 136.969 48ZM158.261 48C157.429 48 156.741 47.728 156.197 47.184C155.653 46.608 155.381 45.904 155.381 45.072V15.408C155.381 14.576 155.653 13.888 156.197 13.344C156.741 12.768 157.429 12.48 158.261 12.48C159.093 12.48 159.781 12.768 160.325 13.344C160.869 13.888 161.141 14.576 161.141 15.408V45.072C161.141 45.904 160.869 46.608 160.325 47.184C159.781 47.728 159.093 48 158.261 48ZM173.525 22.32C174.261 22.32 174.901 22.624 175.445 23.232C175.989 23.84 176.261 24.432 176.261 25.008C176.261 25.776 175.877 26.496 175.109 27.168L160.661 40.464L160.421 33.84L171.413 23.232C172.021 22.624 172.725 22.32 173.525 22.32ZM174.245 47.952C173.413 47.952 172.709 47.632 172.133 46.992L163.253 37.584L167.621 33.552L176.261 42.96C176.869 43.6 177.173 44.32 177.173 45.12C177.173 45.952 176.837 46.64 176.165 47.184C175.525 47.696 174.885 47.952 174.245 47.952ZM206.063 35.184C206.063 37.808 205.471 40.128 204.287 42.144C203.135 44.128 201.567 45.68 199.583 46.8C197.631 47.92 195.439 48.48 193.007 48.48C190.575 48.48 188.367 47.92 186.383 46.8C184.431 45.68 182.863 44.128 181.679 42.144C180.527 40.128 179.951 37.808 179.951 35.184C179.951 32.56 180.527 30.256 181.679 28.272C182.863 26.256 184.431 24.688 186.383 23.568C188.367 22.416 190.575 21.84 193.007 21.84C195.439 21.84 197.631 22.416 199.583 23.568C201.567 24.688 203.135 26.256 204.287 28.272C205.471 30.256 206.063 32.56 206.063 35.184ZM200.303 35.184C200.303 33.552 199.967 32.144 199.295 30.96C198.655 29.744 197.775 28.8 196.655 28.128C195.567 27.456 194.351 27.12 193.007 27.12C191.663 27.12 190.431 27.456 189.311 28.128C188.223 28.8 187.343 29.744 186.671 30.96C186.031 32.144 185.711 33.552 185.711 35.184C185.711 36.784 186.031 38.192 186.671 39.408C187.343 40.592 188.223 41.52 189.311 42.192C190.431 42.864 191.663 43.2 193.007 43.2C194.351 43.2 195.567 42.864 196.655 42.192C197.775 41.52 198.655 40.592 199.295 39.408C199.967 38.192 200.303 36.784 200.303 35.184Z" fill="#58CC02"/>
<rect x="27" y="56" width="24" height="5" rx="2.5" transform="rotate(-180 27 56)" fill="#FFC800"/>
</svg>
