<svg width="162" height="104" viewBox="0 0 162 104" fill="none" xmlns="http://www.w3.org/2000/svg">
<g clip-path="url(#clip0_485_271)">
<path d="M104.47 12.2122C102.416 11.2667 102.1 8.43037 103.996 7.16976C111.583 2.12734 128.731 -5.90902 147.855 7.16976C173.775 24.9758 155.125 47.0364 155.125 47.0364C155.125 47.0364 154.414 47.8243 153.94 47.9031C152.912 47.9819 151.964 48.5334 151.569 49.4001C149.751 53.1031 146.985 56.9637 144.378 54.0485C143.587 53.1819 142.323 52.7879 141.217 53.2607L139.241 53.9698C137.582 54.6001 135.764 53.6546 135.369 51.9213C133.314 43.7273 126.044 22.1395 104.391 12.2122H104.47Z" fill="#58CC02"/>
<path d="M57.6088 11.9759C59.5054 11.1092 59.7425 8.50919 58.0039 7.32737C50.5756 2.28495 33.2693 -6.22414 13.7503 7.09101C-12.1697 24.8971 6.48002 46.9577 6.48002 46.9577C6.48002 46.9577 7.27026 47.8243 7.74441 47.8243C8.6927 47.8243 9.64099 48.3759 10.0361 49.2425C11.9327 53.0243 14.6986 56.9637 17.3064 53.891C18.0176 53.0243 19.1239 52.788 20.1512 53.1031L22.601 53.9698C24.1025 54.5213 25.762 53.6546 26.1571 52.0789C28.1327 44.0425 35.4029 21.9031 57.6088 11.8971V11.9759Z" fill="#58CC02"/>
<path fill-rule="evenodd" clip-rule="evenodd" d="M76.8116 15.2061C113.242 15.5212 120.512 37.4242 128.573 62.2424C128.573 62.2424 143.192 78.1576 129.837 74.6909C129.837 74.6909 131.813 96.3576 126.044 85.5636C126.044 85.5636 85.0302 125.667 34.0594 85.5636C34.0594 85.5636 29.397 97.0667 30.3453 74.5333C30.3453 74.5333 15.6467 79.103 32.1628 62.3212C32.1628 62.3212 40.3024 15.0485 76.7326 15.2848L76.8116 15.2061ZM80.9999 59.2485C80.9999 59.2485 88.5072 58.6182 92.4585 72.2485C96.4097 85.8 88.1911 88.0848 80.9999 88.4C73.8087 88.0848 65.5111 85.8 69.5414 72.2485C73.4926 58.697 80.9999 59.2485 80.9999 59.2485Z" fill="#58CC02"/>
</g>
<defs>
<clipPath id="clip0_485_271">
<rect width="162" height="104" fill="white"/>
</clipPath>
</defs>
</svg>
