<?xml version="1.0" encoding="UTF-8"?>
<svg id="Layer_1" data-name="Layer 1" xmlns="http://www.w3.org/2000/svg" version="1.1" viewBox="0 0 843 136">
  <defs>
    <style>
      .cls-1 {
        fill: #58cc02;
        fill-rule: evenodd;
        stroke-width: 0px;
      }
    </style>
  </defs>
  <path class="cls-1" d="M75.1,15.7c2.5-1.1,2.8-4.5.6-6-9.7-6.6-32.3-17.8-57.7-.3C-15.9,32.6,8.5,61.4,8.5,61.4c0,0,1,1.1,1.7,1.1,1.3,0,2.4.7,3,1.9,2.4,4.9,6.1,10.1,9.5,6,.9-1.1,2.4-1.5,3.7-1l3.1,1.2c2,.7,4.1-.4,4.6-2.4,2.5-10.5,12-39.5,41-52.5h0ZM135.7,9.3c-2.5,1.7-2.1,5.4.6,6.6h0c28.3,13,37.7,41.3,40.4,51.9.5,2.2,2.9,3.4,5,2.7l2.6-1c1.5-.5,3.1,0,4.1,1.1,3.3,3.8,6.9-1.3,9.3-6.1.6-1.2,1.8-1.9,3.1-2,.7,0,1.6-1.1,1.6-1.1,0,0,24.3-28.8-9.5-52.1-25-17.2-47.3-6.7-57.2,0ZM697.5,105.3c1.6,1.6,3.6,2.4,6,2.4s4.4-.8,6-2.4c1.6-1.7,2.4-3.7,2.4-6.2v-14.7l6.9-6.3,25.2,26.7c1.7,1.9,3.7,2.8,6.2,2.8s3.7-.7,5.6-2.2c2-1.6,2.9-3.6,2.9-6s-.9-4.4-2.7-6.3l-24.5-26.7,21.1-19.4c2.2-2,3.4-4.1,3.4-6.3s-.8-3.4-2.4-5.2c-1.6-1.8-3.5-2.7-5.6-2.7s-4.4.9-6.2,2.7l-30,28.9V12.5c0-2.4-.8-4.4-2.4-6-1.6-1.7-3.6-2.5-6-2.5s-4.4.8-6,2.5c-1.6,1.6-2.4,3.6-2.4,6v86.6c0,2.4.8,4.5,2.4,6.2ZM837.8,90.6c3.5-5.9,5.2-12.7,5.2-20.3s-1.7-14.4-5.2-20.2c-3.4-5.9-7.9-10.5-13.7-13.7-5.7-3.4-12.1-5-19.2-5s-13.5,1.7-19.3,5c-5.7,3.3-10.3,7.8-13.7,13.7-3.4,5.8-5,12.5-5,20.2s1.7,14.4,5,20.3c3.5,5.8,8,10.3,13.7,13.6,5.8,3.3,12.2,4.9,19.3,4.9s13.5-1.6,19.2-4.9c5.8-3.3,10.4-7.8,13.7-13.6ZM823.2,57.9c2,3.5,2.9,7.6,2.9,12.3s-1,8.8-2.9,12.3c-1.9,3.5-4.4,6.2-7.7,8.1-3.2,2-6.7,2.9-10.6,2.9s-7.5-1-10.8-2.9c-3.2-2-5.7-4.7-7.7-8.1-1.9-3.5-2.8-7.7-2.8-12.3s.9-8.9,2.8-12.3c2-3.5,4.5-6.3,7.7-8.3,3.3-2,6.9-2.9,10.8-2.9s7.5,1,10.6,2.9c3.3,2,5.8,4.7,7.7,8.3ZM641.3,107.6c-2.4,0-4.4-.8-6-2.4-1.6-1.7-2.4-3.7-2.4-6.2v-57.9c0-2.4.8-4.4,2.4-6,1.6-1.7,3.6-2.5,6-2.5s4.4.8,6,2.5c1.6,1.6,2.4,3.6,2.4,6v1.9c.8-1.5,1.8-2.8,2.9-4,1.7-1.8,3.5-3.2,5.6-4.3,2.1-1.2,4.2-2.1,6.6-2.7,2.3-.6,4.7-.8,7-.8s5.1.8,7,2.4c2,1.6,2.9,3.5,2.9,5.6,0,3.1-.8,5.3-2.4,6.7-1.6,1.3-3.3,2-5.2,2s-3.4-.3-4.9-1c-1.4-.7-3-1-4.9-1s-3.4.4-5.2,1.3c-1.7.7-3.3,2-4.8,3.6-1.4,1.7-2.6,3.8-3.5,6.3-.8,2.4-1.3,5.3-1.3,8.7v33.2c0,2.4-.8,4.5-2.4,6.2-1.6,1.6-3.6,2.4-6,2.4ZM564.9,104.1c5.9,3.3,12.8,4.9,20.7,4.9s9.2-.7,13.6-2.2c4.4-1.6,7.8-3.4,10.2-5.5,2.6-2.1,3.9-4.3,3.9-6.9s-.7-3.5-2.1-4.9c-1.3-1.4-3-2.1-5-2.1s-3.1.4-4.8,1.3c-1,.6-2.2,1.3-3.5,2.1-1.2.7-2.8,1.4-4.9,2-2.1.6-4.8.8-8.3.8s-7.3-.9-10.6-2.7c-3.3-1.9-6-4.5-8.1-8-1.2-2.1-2.1-4.4-2.6-7h46.3c2.2,0,4.2-.7,5.9-2.1,1.7-1.4,2.6-3.2,2.7-5.5,0-5-1-9.8-2.9-14.3-1.9-4.5-4.4-8.4-7.7-11.8-3.3-3.5-7.1-6.2-11.3-8.1-4.2-2-8.7-2.9-13.4-2.9s-12,1.6-17.5,4.8c-5.5,3.2-10,7.8-13.5,13.7-3.4,5.9-5,13-5,21.4s1.5,13.6,4.6,19.3c3.2,5.7,7.7,10.2,13.4,13.6ZM563.6,62h36.7v-1c-.2-2.7-1.2-5.1-2.9-7.3-1.7-2.1-3.8-3.8-6.4-5-2.5-1.3-5.2-2-8.1-2s-5.4.4-7.8,1.1c-2.4.7-4.5,2-6.3,3.8-1.8,1.8-3.2,4.2-4.2,7.1-.3,1-.6,2.1-.8,3.2ZM530.6,109c0,5.3-1,9.9-3.1,13.7-2.1,3.9-4.8,7-8.3,9.1-3.5,2.1-7.3,3.2-11.6,3.2s-4.2-.8-5.6-2.4c-1.5-1.5-2.2-3.3-2.2-5.5v-1.5c0-2.1.7-3.7,2.1-4.9,1.3-1.2,3-2.1,5-2.8,2.2-.7,3.8-1.8,4.8-3.2.9-1.3,1.5-2.9,1.7-4.8.3-1.9.4-3.8.4-5.9v-62.9c0-2.4.8-4.4,2.4-6,1.6-1.7,3.6-2.5,6-2.5s4.4.8,6,2.5c1.6,1.6,2.4,3.6,2.4,6v67.8ZM521.9,23.6c-3.2,0-5.4-.5-6.7-1.5-1.3-1-2-2.8-2-5.5v-2.7c0-2.7.7-4.5,2.1-5.5,1.5-1,3.7-1.5,6.7-1.5s5.6.5,6.9,1.5c1.3,1,2,2.8,2,5.5v2.7c0,2.7-.7,4.6-2.1,5.6-1.4.9-3.7,1.4-6.9,1.4ZM492.1,105.3c1.6-1.7,2.4-3.7,2.4-6.2v-57.9c0-2.4-.8-4.4-2.4-6-1.6-1.7-3.6-2.5-6-2.5s-4.4.8-6,2.5c-1.6,1.6-2.4,3.6-2.4,6v57.9c0,2.4.8,4.5,2.4,6.2,1.6,1.6,3.6,2.4,6,2.4s4.4-.8,6-2.4ZM479.2,22c1.3,1,3.5,1.5,6.7,1.5s5.5-.5,6.9-1.4c1.4-1,2.1-2.9,2.1-5.6v-2.7c0-2.6-.7-4.4-2-5.5-1.3-1-3.6-1.5-6.9-1.5s-5.2.5-6.7,1.5c-1.4.9-2.1,2.8-2.1,5.5v2.7c0,2.6.7,4.4,2,5.5ZM426.3,107.6c-2.4,0-4.4-.8-6-2.4-1.6-1.7-2.4-3.7-2.4-6.2v-57.9c0-2.4.8-4.4,2.4-6,1.6-1.7,3.6-2.5,6-2.5s4.4.8,6,2.5c1.6,1.6,2.4,3.6,2.4,6v1.9c.8-1.5,1.8-2.8,2.9-4,1.7-1.8,3.5-3.2,5.6-4.3,2.1-1.2,4.2-2.1,6.6-2.7,2.3-.6,4.7-.8,7-.8s5.1.8,7,2.4c2,1.6,2.9,3.5,2.9,5.6,0,3.1-.8,5.3-2.4,6.7-1.6,1.3-3.3,2-5.2,2s-3.4-.3-4.9-1c-1.4-.7-3-1-4.9-1s-3.4.4-5.2,1.3c-1.7.7-3.3,2-4.8,3.6-1.4,1.7-2.6,3.8-3.5,6.3-.8,2.4-1.3,5.3-1.3,8.7v33.2c0,2.4-.8,4.5-2.4,6.2-1.6,1.6-3.6,2.4-6,2.4ZM397.3,33.7c-1.6-1.6-3.6-2.4-6-2.4s-4.4.8-6,2.5c-1.6,1.6-2.4,3.6-2.4,6v.2c-.8-.8-1.8-1.6-2.8-2.3-2.4-1.9-5.3-3.4-8.7-4.6-3.4-1.2-7.1-1.8-11.1-1.8-6.3,0-12,1.7-17.1,5-5.1,3.3-9.2,7.8-12.3,13.7-3,5.8-4.5,12.5-4.5,20.2s1.5,14.3,4.5,20.2c3.1,5.8,7.2,10.4,12.5,13.7,5.2,3.3,11.1,4.9,17.5,4.9s6.8-.6,9.8-1.7c3.1-1.2,5.7-2.7,8-4.3,1.7-1.2,3.1-2.5,4.2-3.7,0,2.3.8,4.3,2.4,6,1.6,1.6,3.6,2.4,6,2.4s4.4-.8,6-2.4c1.6-1.7,2.4-3.7,2.4-6.2v-59.3c0-2.5-.8-4.6-2.4-6.2ZM373.7,90.6c-3.1,2.1-6.7,3.1-10.8,3.1s-7.6-1-10.6-3.1c-3.1-2.1-5.5-4.9-7.3-8.4-1.7-3.5-2.5-7.5-2.5-11.9s.8-8.5,2.5-12c1.8-3.5,4.2-6.4,7.3-8.4,3.1-2.1,6.6-3.1,10.6-3.1s7.7,1,10.8,3.1c3.1,2.1,5.5,4.9,7.1,8.4,1.8,3.5,2.7,7.6,2.7,12s-.9,8.4-2.7,11.9c-1.7,3.5-4.1,6.4-7.1,8.4ZM260.5,107.6c-2.4,0-4.4-.8-6-2.4-1.6-1.7-2.4-3.7-2.4-6.2V12.5c0-2.4.8-4.4,2.4-6,1.6-1.7,3.6-2.5,6-2.5s4.4.8,6,2.5c1.6,1.6,2.4,3.6,2.4,6v51.8l30-28.9c1.8-1.8,3.8-2.7,6.2-2.7s4,.9,5.6,2.7c1.6,1.8,2.4,3.5,2.4,5.2s-1.1,4.3-3.4,6.3l-21.1,19.4,24.5,26.7c1.8,1.9,2.7,4,2.7,6.3s-1,4.4-2.9,6c-1.9,1.5-3.7,2.2-5.6,2.2s-4.5-.9-6.2-2.8l-25.2-26.7-6.9,6.3v14.7c0,2.4-.8,4.5-2.4,6.2-1.6,1.6-3.6,2.4-6,2.4ZM167.7,81.4c-10.6-32.4-20-61.1-67.5-61.5-47.5-.4-58.1,61.5-58.1,61.5-21.5,22-2.4,16-2.4,16-1.3,29.5,4.8,14.4,4.8,14.4,66.4,52.4,119.9,0,119.9,0,7.5,14.1,4.9-14.2,4.9-14.2,17.4,4.6-1.7-16.2-1.7-16.2h0ZM120.6,94.5c-5.2-17.8-15-17-15-17,0,0-9.8-.8-15,17-5.2,17.8,5.6,20.8,15,21.2,9.4-.4,20.1-3.4,15-21.2Z"/>
</svg>