<svg width="211" height="211" viewBox="0 0 211 211" fill="none" xmlns="http://www.w3.org/2000/svg">
<rect width="211" height="211" rx="105.5" fill="#58CC02"/>
<g clip-path="url(#clip0_796_316)">
<path d="M129.47 65.2122C127.416 64.2667 127.1 61.4304 128.996 60.1698C136.583 55.1273 153.731 47.091 172.855 60.1698C198.775 77.9758 180.125 100.036 180.125 100.036C180.125 100.036 179.414 100.824 178.94 100.903C177.912 100.982 176.964 101.533 176.569 102.4C174.751 106.103 171.985 109.964 169.378 107.049C168.587 106.182 167.323 105.788 166.217 106.261L164.241 106.97C162.582 107.6 160.764 106.655 160.369 104.921C158.314 96.7273 151.044 75.1395 129.391 65.2122H129.47Z" fill="white"/>
<path d="M82.6088 64.9759C84.5054 64.1092 84.7425 61.5092 83.0039 60.3274C75.5756 55.285 58.2693 46.7759 38.7503 60.091C12.8303 77.8971 31.48 99.9577 31.48 99.9577C31.48 99.9577 32.2703 100.824 32.7444 100.824C33.6927 100.824 34.641 101.376 35.0361 102.243C36.9327 106.024 39.6986 109.964 42.3064 106.891C43.0176 106.024 44.1239 105.788 45.1512 106.103L47.601 106.97C49.1025 107.521 50.762 106.655 51.1571 105.079C53.1327 97.0425 60.4029 74.9031 82.6088 64.8971V64.9759Z" fill="white"/>
<path fill-rule="evenodd" clip-rule="evenodd" d="M101.812 68.2061C138.242 68.5212 145.512 90.4242 153.573 115.242C153.573 115.242 168.192 131.158 154.837 127.691C154.837 127.691 156.813 149.358 151.044 138.564C151.044 138.564 110.03 178.667 59.0594 138.564C59.0594 138.564 54.397 150.067 55.3453 127.533C55.3453 127.533 40.6467 132.103 57.1628 115.321C57.1628 115.321 65.3024 68.0485 101.733 68.2848L101.812 68.2061ZM106 112.248C106 112.248 113.507 111.618 117.458 125.248C121.41 138.8 113.191 141.085 106 141.4C98.8087 141.085 90.5111 138.8 94.5414 125.248C98.4926 111.697 106 112.248 106 112.248Z" fill="white"/>
</g>
<defs>
<clipPath id="clip0_796_316">
<rect width="162" height="104" fill="white" transform="translate(25 53)"/>
</clipPath>
</defs>
</svg>
