<?xml version="1.0" encoding="UTF-8"?>
<svg id="Layer_1" data-name="Layer 1" xmlns="http://www.w3.org/2000/svg" version="1.1" viewBox="0 0 205 132">
  <defs>
    <style>
      .cls-1, .cls-2 {
        fill: #58cc02;
        stroke-width: 0px;
      }

      .cls-2 {
        fill-rule: evenodd;
      }
    </style>
  </defs>
  <path class="cls-1" d="M132.2,15.5c-2.6-1.2-3-4.8-.6-6.4,9.6-6.4,31.3-16.6,55.5,0,32.8,22.6,9.2,50.6,9.2,50.6,0,0-.9,1-1.5,1.1-1.3.1-2.5.8-3,1.9-2.3,4.7-5.8,9.6-9.1,5.9-1-1.1-2.6-1.6-4-1l-2.5.9c-2.1.8-4.4-.4-4.9-2.6-2.6-10.4-11.8-37.8-39.2-50.4h0Z"/>
  <path class="cls-1" d="M72.9,15.2c2.4-1.1,2.7-4.4.5-5.9-9.4-6.4-31.3-17.2-56-.3C-15.4,31.6,8.2,59.6,8.2,59.6c0,0,1,1.1,1.6,1.1,1.2,0,2.4.7,2.9,1.8,2.4,4.8,5.9,9.8,9.2,5.9.9-1.1,2.3-1.4,3.6-1l3.1,1.1c1.9.7,4-.4,4.5-2.4,2.5-10.2,11.7-38.3,39.8-51h0Z"/>
  <path class="cls-2" d="M97.2,19.3c46.1.4,55.3,28.2,65.5,59.7h0s0,0,0,0c0,0,18.5,20.2,1.6,15.8,0,0,2.5,27.5-4.8,13.8,0,0-51.9,50.9-116.4,0,0,0-5.9,14.6-4.7-14,0,0-18.6,5.8,2.3-15.5,0,0,10.3-60,56.4-59.7ZM102.5,75.2s9.5-.8,14.5,16.5c5,17.2-5.4,20.1-14.5,20.5-9.1-.4-19.6-3.3-14.5-20.5,5-17.2,14.5-16.5,14.5-16.5Z"/>
</svg>