<svg width="145" height="145" viewBox="0 0 145 145" fill="none" xmlns="http://www.w3.org/2000/svg">
<circle cx="72.5" cy="72.5" r="72.5" fill="white"/>
<path d="M87.7598 46.5553C86.4134 45.9356 86.2438 44.0884 87.4773 43.2661C92.3956 39.9788 103.431 34.7955 115.806 43.3031C132.552 54.8154 120.51 69.0909 120.51 69.0909C120.51 69.0909 120.064 69.5995 119.721 69.6307C119.064 69.6891 118.462 70.0165 118.168 70.6069C116.979 72.994 115.2 75.4979 113.546 73.6409C113.035 73.068 112.242 72.842 111.523 73.107L110.247 73.5786C109.189 73.9702 108.021 73.3584 107.751 72.2632C106.443 66.9806 101.753 52.9896 87.7598 46.5573V46.5553Z" fill="#58CC02"/>
<path d="M103.325 78.9709C98.0946 62.9066 93.4257 48.711 69.8885 48.5239C46.3533 48.3369 41.1232 78.9709 41.1232 78.9709C30.4839 89.8597 39.958 86.8841 39.958 86.8841C39.3227 101.489 42.3411 94.0297 42.3411 94.0297C75.2355 119.973 101.733 94.0297 101.733 94.0297C105.458 101.013 104.166 87.0089 104.166 87.0089C112.787 89.2887 103.327 78.9728 103.327 78.9728H103.325V78.9709Z" fill="#58CC02"/>
<path d="M57.5071 46.4316C58.7328 45.8802 58.8906 44.1985 57.7818 43.4405C53.0019 40.1708 41.7916 34.6406 29.1939 43.3002C12.4476 54.8126 24.4899 69.0881 24.4899 69.0881C24.4899 69.0881 24.981 69.6493 25.3298 69.6278C25.9572 69.5889 26.5301 69.9942 26.8088 70.5573C28.015 72.995 29.8428 75.5808 31.5264 73.5504C31.9726 73.0126 32.7131 72.8216 33.3658 73.0632L34.9247 73.64C35.8951 73.9985 36.961 73.4335 37.2046 72.4299C38.4614 67.2486 43.1498 52.8757 57.5051 46.4316H57.5071Z" fill="#58CC02"/>
<path d="M80.0117 85.4443C77.4434 76.6502 72.605 77.0458 72.605 77.0458C72.605 77.0458 67.7686 76.6502 65.1984 85.4443C62.6301 94.2383 67.9557 95.7212 72.605 95.918C77.2544 95.7212 82.5799 94.2383 80.0117 85.4443Z" fill="white"/>
</svg>
