<svg width="279" height="45" viewBox="0 0 279 45" fill="none" xmlns="http://www.w3.org/2000/svg">
<g clip-path="url(#clip0_485_269)">
<path fill-rule="evenodd" clip-rule="evenodd" d="M24.8492 5.19485C25.6765 4.83088 25.7757 3.70588 25.0478 3.20956C21.8382 1.02574 14.3603 -2.68015 5.95587 3.11029C-5.26105 10.7868 2.81248 20.3162 2.81248 20.3162C2.81248 20.3162 3.14337 20.6801 3.37498 20.6801C3.80513 20.6801 4.1691 20.9118 4.36763 21.3088C5.16175 22.9301 6.38601 24.6507 7.51101 23.2941C7.80881 22.9301 8.30513 22.7978 8.73528 22.9632L9.76101 23.3603C10.4228 23.5919 11.1176 23.2279 11.2831 22.5662C12.1103 19.0919 15.2537 9.49632 24.8492 5.19485ZM44.9007 3.07721C44.0735 3.63971 44.2059 4.86397 45.0993 5.26103C54.4632 9.5625 57.5735 18.9265 58.4669 22.4338C58.6323 23.1618 59.4265 23.5588 60.1213 23.3272L60.9816 22.9963C61.4779 22.8309 62.0073 22.9963 62.3382 23.3603C63.4301 24.6176 64.6213 22.9301 65.4154 21.3419C65.614 20.9449 66.011 20.7132 66.4412 20.6801C66.6728 20.6801 66.9706 20.3162 66.9706 20.3162C66.9706 20.3162 75.011 10.7868 63.8272 3.07721C55.5551 -2.61397 48.1765 0.860294 44.9007 3.07721ZM230.79 34.8419C231.32 35.3713 231.982 35.636 232.776 35.636C233.57 35.636 234.232 35.3713 234.761 34.8419C235.29 34.2794 235.555 33.6176 235.555 32.7904V27.9265L237.838 25.8419L246.176 34.6765C246.739 35.3052 247.401 35.6029 248.228 35.6029C249.055 35.6029 249.452 35.3713 250.081 34.875C250.743 34.3456 251.04 33.6838 251.04 32.8897C251.04 32.0956 250.743 31.4338 250.147 30.8051L242.04 21.9706L249.022 15.5515C249.75 14.8897 250.147 14.1949 250.147 13.4669C250.147 12.739 249.882 12.3419 249.353 11.7463C248.824 11.1507 248.195 10.8529 247.5 10.8529C246.805 10.8529 246.044 11.1507 245.449 11.7463L235.522 21.3088V4.13603C235.522 3.34191 235.257 2.68015 234.728 2.15074C234.199 1.58824 233.537 1.32353 232.743 1.32353C231.949 1.32353 231.287 1.58824 230.757 2.15074C230.228 2.68015 229.963 3.34191 229.963 4.13603V32.7904C229.963 33.5846 230.228 34.2794 230.757 34.8419H230.79ZM277.213 29.9779C278.371 28.0257 278.934 25.7757 278.934 23.261C278.934 20.7463 278.371 18.4963 277.213 16.5772C276.088 14.625 274.599 13.1029 272.68 12.0441C270.794 10.9191 268.676 10.3897 266.327 10.3897C263.978 10.3897 261.86 10.9522 259.941 12.0441C258.055 13.136 256.533 14.625 255.408 16.5772C254.283 18.4963 253.754 20.7132 253.754 23.261C253.754 25.8088 254.316 28.0257 255.408 29.9779C256.566 31.8971 258.055 33.386 259.941 34.4779C261.86 35.5699 263.978 36.0993 266.327 36.0993C268.676 36.0993 270.794 35.5699 272.68 34.4779C274.599 33.386 276.121 31.8971 277.213 29.9779ZM272.382 19.1581C273.044 20.3162 273.342 21.6728 273.342 23.2279C273.342 24.7831 273.011 26.1397 272.382 27.2978C271.754 28.4559 270.926 29.3493 269.835 29.9779C268.776 30.6397 267.618 30.9375 266.327 30.9375C265.037 30.9375 263.846 30.6066 262.754 29.9779C261.695 29.3162 260.868 28.4228 260.206 27.2978C259.577 26.1397 259.279 24.75 259.279 23.2279C259.279 21.7059 259.577 20.2831 260.206 19.1581C260.868 18 261.695 17.0735 262.754 16.4118C263.846 15.75 265.037 15.4522 266.327 15.4522C267.618 15.4522 268.809 15.7831 269.835 16.4118C270.926 17.0735 271.754 17.9669 272.382 19.1581ZM212.195 35.6029C211.401 35.6029 210.739 35.3382 210.21 34.8088C209.68 34.2463 209.415 33.5846 209.415 32.7574V13.5993C209.415 12.8051 209.68 12.1434 210.21 11.614C210.739 11.0515 211.401 10.7868 212.195 10.7868C212.989 10.7868 213.651 11.0515 214.18 11.614C214.71 12.1434 214.974 12.8051 214.974 13.5993V14.2279C215.239 13.7316 215.57 13.3015 215.934 12.9044C216.496 12.3088 217.092 11.8456 217.787 11.4816C218.482 11.0846 219.176 10.7868 219.971 10.5882C220.732 10.3897 221.526 10.3235 222.287 10.3235C223.048 10.3235 223.974 10.5882 224.603 11.1176C225.265 11.6471 225.562 12.2757 225.562 12.9706C225.562 13.9963 225.298 14.7243 224.768 15.1875C224.239 15.6176 223.676 15.8493 223.048 15.8493C222.419 15.8493 221.923 15.75 221.426 15.5184C220.963 15.2868 220.434 15.1875 219.805 15.1875C219.176 15.1875 218.68 15.3199 218.085 15.6176C217.522 15.8493 216.993 16.2794 216.496 16.8088C216.033 17.3713 215.636 18.0662 215.338 18.8934C215.074 19.6875 214.908 20.6471 214.908 21.7721V32.7574C214.908 33.5515 214.643 34.2463 214.114 34.8088C213.585 35.3382 212.923 35.6029 212.129 35.6029H212.195ZM186.915 34.4449C188.868 35.5368 191.151 36.0662 193.765 36.0662C196.379 36.0662 196.809 35.8346 198.265 35.3382C199.721 34.8088 200.846 34.2132 201.64 33.5184C202.5 32.8235 202.93 32.0956 202.93 31.2353C202.93 30.375 202.699 30.0772 202.235 29.614C201.805 29.1507 201.243 28.9191 200.581 28.9191C199.919 28.9191 199.555 29.0515 198.993 29.3493C198.662 29.5478 198.265 29.7794 197.835 30.0441C197.438 30.2757 196.908 30.5074 196.213 30.7059C195.518 30.9044 194.625 30.9706 193.467 30.9706C192.309 30.9706 191.051 30.6728 189.96 30.0772C188.868 29.4485 187.974 28.5882 187.279 27.4301C186.882 26.7353 186.585 25.9743 186.419 25.114H201.739C202.467 25.114 203.129 24.8824 203.691 24.4191C204.254 23.9559 204.551 23.3603 204.585 22.5993C204.585 20.9449 204.254 19.3566 203.625 17.8676C202.996 16.3787 202.169 15.0882 201.077 13.9632C199.985 12.8051 198.728 11.9118 197.338 11.2831C195.949 10.6213 194.46 10.3235 192.904 10.3235C191.349 10.3235 188.934 10.8529 187.114 11.9118C185.294 12.9706 183.805 14.4926 182.647 16.4449C181.522 18.3971 180.993 20.7463 180.993 23.5257C180.993 26.3051 181.489 28.0257 182.515 29.9118C183.574 31.7978 185.063 33.2868 186.949 34.4118L186.915 34.4449ZM186.485 20.5147H198.629V20.1838C198.563 19.2904 198.232 18.4963 197.669 17.7684C197.107 17.0735 196.412 16.511 195.551 16.114C194.724 15.6838 193.831 15.4522 192.871 15.4522C191.912 15.4522 191.085 15.5846 190.29 15.8162C189.496 16.0478 188.801 16.4779 188.206 17.0735C187.61 17.6691 187.147 18.4632 186.816 19.4228C186.717 19.7537 186.618 20.1176 186.551 20.4816L186.485 20.5147ZM175.566 36.0662C175.566 37.8199 175.235 39.3419 174.54 40.5993C173.846 41.8897 172.952 42.9154 171.794 43.6103C170.636 44.3052 169.379 44.6691 167.956 44.6691C166.533 44.6691 166.566 44.4044 166.103 43.875C165.607 43.3787 165.375 42.7831 165.375 42.0552V41.5588C165.375 40.864 165.607 40.3346 166.07 39.9375C166.5 39.5404 167.062 39.2427 167.724 39.011C168.452 38.7794 168.982 38.4154 169.312 37.9522C169.61 37.5221 169.809 36.9926 169.875 36.364C169.974 35.7353 170.007 35.1066 170.007 34.4118V13.5993C170.007 12.8051 170.272 12.1434 170.801 11.614C171.331 11.0515 171.993 10.7868 172.787 10.7868C173.581 10.7868 174.243 11.0515 174.772 11.614C175.301 12.1434 175.566 12.8051 175.566 13.5993V36.0331V36.0662ZM172.688 7.80882C171.629 7.80882 170.901 7.64338 170.471 7.3125C170.04 6.98162 169.809 6.38603 169.809 5.49265V4.59926C169.809 3.70588 170.04 3.11029 170.504 2.77941C171 2.44853 171.728 2.28309 172.721 2.28309C173.713 2.28309 174.574 2.44853 175.004 2.77941C175.434 3.11029 175.665 3.70588 175.665 4.59926V5.49265C175.665 6.38603 175.434 7.01471 174.971 7.34559C174.507 7.64338 173.746 7.80882 172.688 7.80882ZM162.827 34.8419C163.357 34.2794 163.621 33.6176 163.621 32.7904V13.6324C163.621 12.8382 163.357 12.1765 162.827 11.6471C162.298 11.0846 161.636 10.8199 160.842 10.8199C160.048 10.8199 159.386 11.0846 158.857 11.6471C158.327 12.1765 158.062 12.8382 158.062 13.6324V32.7904C158.062 33.5846 158.327 34.2794 158.857 34.8419C159.386 35.3713 160.048 35.636 160.842 35.636C161.636 35.636 162.298 35.3713 162.827 34.8419ZM158.559 7.27941C158.989 7.61029 159.717 7.77574 160.776 7.77574C161.835 7.77574 162.596 7.61029 163.059 7.3125C163.522 6.98162 163.754 6.35294 163.754 5.45956V4.56618C163.754 3.70588 163.522 3.11029 163.092 2.74632C162.662 2.41544 161.901 2.25 160.809 2.25C159.717 2.25 159.088 2.41544 158.592 2.74632C158.129 3.04412 157.897 3.67279 157.897 4.56618V5.45956C157.897 6.31985 158.129 6.91544 158.559 7.27941ZM141.055 35.6029C140.261 35.6029 139.599 35.3382 139.07 34.8088C138.54 34.2463 138.276 33.5846 138.276 32.7574V13.5993C138.276 12.8051 138.54 12.1434 139.07 11.614C139.599 11.0515 140.261 10.7868 141.055 10.7868C141.849 10.7868 142.511 11.0515 143.04 11.614C143.57 12.1434 143.835 12.8051 143.835 13.5993V14.2279C144.099 13.7316 144.43 13.3015 144.794 12.9044C145.357 12.3088 145.952 11.8456 146.647 11.4816C147.342 11.0846 148.037 10.7868 148.831 10.5882C149.592 10.3897 150.386 10.3235 151.147 10.3235C151.908 10.3235 152.835 10.5882 153.463 11.1176C154.125 11.6471 154.423 12.2757 154.423 12.9706C154.423 13.9963 154.158 14.7243 153.629 15.1875C153.099 15.6176 152.537 15.8493 151.908 15.8493C151.279 15.8493 150.783 15.75 150.287 15.5184C149.824 15.2868 149.294 15.1875 148.665 15.1875C148.037 15.1875 147.54 15.3199 146.945 15.6176C146.382 15.8493 145.853 16.2794 145.357 16.8088C144.893 17.3713 144.496 18.0662 144.199 18.8934C143.934 19.6875 143.768 20.6471 143.768 21.7721V32.7574C143.768 33.5515 143.504 34.2463 142.974 34.8088C142.445 35.3382 141.783 35.6029 140.989 35.6029H141.055ZM131.46 11.1507C130.93 10.6213 130.268 10.3566 129.474 10.3566C128.68 10.3566 128.018 10.6213 127.489 11.1838C126.96 11.7132 126.695 12.375 126.695 13.1691V13.2353C126.43 12.9706 126.099 12.7059 125.768 12.4743C124.974 11.8456 124.015 11.3493 122.89 10.9522C121.765 10.5551 120.54 10.3566 119.217 10.3566C117.132 10.3566 115.246 10.9191 113.559 12.011C111.871 13.1029 110.515 14.5919 109.489 16.5441C108.496 18.4632 108 20.6801 108 23.2279C108 25.7757 108.496 27.9596 109.489 29.9118C110.515 31.8309 111.871 33.3529 113.625 34.4449C115.346 35.5368 117.298 36.0662 119.415 36.0662C121.533 36.0662 121.665 35.8677 122.658 35.5037C123.684 35.1066 124.544 34.6103 125.305 34.0809C125.868 33.6838 126.331 33.2537 126.695 32.8566C126.695 33.6177 126.96 34.2794 127.489 34.8419C128.018 35.3713 128.68 35.636 129.474 35.636C130.268 35.636 130.93 35.3713 131.46 34.8419C131.989 34.2794 132.254 33.6176 132.254 32.7904V13.1691C132.254 12.3419 131.989 11.6471 131.46 11.1176V11.1507ZM123.651 29.9779C122.625 30.6728 121.434 31.0037 120.077 31.0037C118.721 31.0037 117.562 30.6728 116.57 29.9779C115.544 29.2831 114.75 28.3566 114.154 27.1985C113.592 26.0404 113.327 24.7169 113.327 23.261C113.327 21.8051 113.592 20.4485 114.154 19.2904C114.75 18.1324 115.544 17.1728 116.57 16.511C117.596 15.8162 118.754 15.4853 120.077 15.4853C121.401 15.4853 122.625 15.8162 123.651 16.511C124.676 17.2059 125.471 18.1324 126 19.2904C126.596 20.4485 126.893 21.8051 126.893 23.261C126.893 24.7169 126.596 26.0404 126 27.1985C125.437 28.3566 124.643 29.3162 123.651 29.9779ZM86.1948 35.6029C85.4007 35.6029 84.739 35.3382 84.2095 34.8088C83.6801 34.2463 83.4154 33.5846 83.4154 32.7574V4.13603C83.4154 3.34191 83.6801 2.68015 84.2095 2.15074C84.739 1.58824 85.4007 1.32353 86.1948 1.32353C86.989 1.32353 87.6507 1.58824 88.1801 2.15074C88.7095 2.68015 88.9742 3.34191 88.9742 4.13603V21.2757L98.9007 11.7132C99.4963 11.1176 100.158 10.8199 100.952 10.8199C101.746 10.8199 102.276 11.1176 102.805 11.7132C103.335 12.3088 103.599 12.8713 103.599 13.4338C103.599 13.9963 103.235 14.8566 102.474 15.5184L95.4926 21.9375L103.599 30.7721C104.195 31.4007 104.493 32.0956 104.493 32.8566C104.493 33.6177 104.162 34.3125 103.533 34.8419C102.904 35.3382 102.309 35.5699 101.68 35.5699C101.051 35.5699 100.191 35.2721 99.6287 34.6434L91.2904 25.8088L89.0073 27.8934V32.7574C89.0073 33.5515 88.7426 34.2463 88.2132 34.8088C87.6838 35.3382 87.022 35.6029 86.2279 35.6029H86.1948ZM55.489 26.9338C51.9816 16.2132 48.8713 6.71691 33.1544 6.58456C17.4375 6.45221 13.9301 26.9338 13.9301 26.9338C6.81616 34.2132 13.136 32.2279 13.136 32.2279C12.7059 41.989 14.7242 36.9926 14.7242 36.9926C36.6948 54.3309 54.397 36.9926 54.397 36.9926C56.8787 41.6581 56.0184 32.2941 56.0184 32.2941C61.7757 33.8162 55.4559 26.9338 55.4559 26.9338H55.489ZM39.9044 31.2684C38.1838 25.3787 34.9412 25.6434 34.9412 25.6434C34.9412 25.6434 31.6985 25.3787 29.9779 31.2684C28.2573 37.1581 31.8309 38.1507 34.9412 38.2831C38.0515 38.1507 41.5919 37.1581 39.9044 31.2684Z" fill="white"/>
</g>
<defs>
<clipPath id="clip0_485_269">
<rect width="278.934" height="45" fill="white"/>
</clipPath>
</defs>
</svg>
